HIERARCHY
ROOT hip
{
  OFFSET 0 0 0
  CHANNELS 6 Xposition Yposition Zposition Zrotation Yrotation Xrotation
  JOINT abdomen
  {
    OFFSET 0 20.6881 -0.73152
    CHANNELS 3 Zrotation Xrotation Yrotation
    JOINT chest
    {
      OFFSET 0 11.7043 -0.48768
      CHANNELS 3 Zrotation Xrotation Yrotation
      JOINT neck
      {
        OFFSET 0 22.1894 -2.19456
        CHANNELS 3 Zrotation Xrotation Yrotation
        JOINT head
        {
          OFFSET -0.24384 7.07133 1.2192
          CHANNELS 3 Zrotation Xrotation Yrotation
          JOINT leftEye
          {
            OFFSET 4.14528 8.04674 8.04672
            CHANNELS 3 Zrotation Xrotation Yrotation
            End Site
            {
              OFFSET 1 0 0
            }
          }
          JOINT rightEye
          {
            OFFSET -3.6576 8.04674 8.04672
            CHANNELS 3 Zrotation Xrotation Yrotation
            End Site
            {
              OFFSET 1 0 0
            }
          }
        }
      }
      JOINT rCollar
      {
        OFFSET -2.68224 19.2634 -4.8768
        CHANNELS 3 Zrotation Xrotation Yrotation
        JOINT rShldr
        {
          OFFSET -8.77824 -1.95073 1.46304
          CHANNELS 3 Zrotation Xrotation Yrotation
          JOINT rForeArm
          {
            OFFSET -28.1742 -1.7115 0.48768
            CHANNELS 3 Zrotation Xrotation Yrotation
            JOINT rHand
            {
              OFFSET -22.5879 0.773209 7.07136
              CHANNELS 3 Zrotation Xrotation Yrotation
              JOINT rThumb1
              {
                OFFSET -1.2192 -0.487915 3.41376
                CHANNELS 3 Zrotation Xrotation Yrotation
                JOINT rThumb2
                {
                  OFFSET -3.37035 -0.52449 3.41376
                  CHANNELS 3 Zrotation Xrotation Yrotation
                  End Site
                  {
                    OFFSET -1.78271 -1.18214 1.43049
                  }
                }
              }
              JOINT rIndex1
              {
                OFFSET -7.75947 0.938293 5.60832
                CHANNELS 3 Zrotation Xrotation Yrotation
                JOINT rIndex2
                {
                  OFFSET -2.54057 -0.884171 1.56538
                  CHANNELS 3 Zrotation Xrotation Yrotation
                  End Site
                  {
                    OFFSET -1.62519 -0.234802 1.16502
                  }
                }
              }
              JOINT rMid1
              {
                OFFSET -8.24714 1.18213 3.41376
                CHANNELS 3 Zrotation Xrotation Yrotation
                JOINT rMid2
                {
                  OFFSET -3.10165 -0.590103 1.0647
                  CHANNELS 3 Zrotation Xrotation Yrotation
                  End Site
                  {
                    OFFSET -2.48547 -0.328903 0.83742
                  }
                }
              }
              JOINT rRing1
              {
                OFFSET -8.82822 0.546677 1.51678
                CHANNELS 3 Zrotation Xrotation Yrotation
                JOINT rRing2
                {
                  OFFSET -2.60934 -0.819778 -0.0198488
                  CHANNELS 3 Zrotation Xrotation Yrotation
                  End Site
                  {
                    OFFSET -2.33842 -0.294052 0.168128
                  }
                }
              }
              JOINT rPinky1
              {
                OFFSET -8.27202 -0.0477905 -0.4584
                CHANNELS 3 Zrotation Xrotation Yrotation
                JOINT rPinky2
                {
                  OFFSET -1.82734 -0.647385 -0.700984
                  CHANNELS 3 Zrotation Xrotation Yrotation
                  End Site
                  {
                    OFFSET -1.69225 -0.51767 -0.607171
                  }
                }
              }
            }
          }
        }
      }
      JOINT lCollar
      {
        OFFSET 2.68224 19.2634 -4.8768
        CHANNELS 3 Zrotation Xrotation Yrotation
        JOINT lShldr
        {
          OFFSET 8.77824 -1.95073 1.46304
          CHANNELS 3 Zrotation Xrotation Yrotation
          JOINT lForeArm
          {
            OFFSET 28.1742 -1.7115 0.48768
            CHANNELS 3 Zrotation Xrotation Yrotation
            JOINT lHand
            {
              OFFSET 22.5879 0.773209 7.07136
              CHANNELS 3 Zrotation Xrotation Yrotation
              JOINT lThumb1
              {
                OFFSET 1.2192 -0.487915 3.41376
                CHANNELS 3 Zrotation Xrotation Yrotation
                JOINT lThumb2
                {
                  OFFSET 3.37035 -0.52449 3.41376
                  CHANNELS 3 Zrotation Xrotation Yrotation
                  End Site
                  {
                    OFFSET 1.78271 -1.18214 1.43049
                  }
                }
              }
              JOINT lIndex1
              {
                OFFSET 7.75947 0.938293 5.60832
                CHANNELS 3 Zrotation Xrotation Yrotation
                JOINT lIndex2
                {
                  OFFSET 2.54057 -0.884171 1.56538
                  CHANNELS 3 Zrotation Xrotation Yrotation
                  End Site
                  {
                    OFFSET 1.62519 -0.234802 1.16502
                  }
                }
              }
              JOINT lMid1
              {
                OFFSET 8.24714 1.18213 3.41376
                CHANNELS 3 Zrotation Xrotation Yrotation
                JOINT lMid2
                {
                  OFFSET 3.10165 -0.590103 1.0647
                  CHANNELS 3 Zrotation Xrotation Yrotation
                  End Site
                  {
                    OFFSET 2.48547 -0.328903 0.83742
                  }
                }
              }
              JOINT lRing1
              {
                OFFSET 8.82822 0.546677 1.51678
                CHANNELS 3 Zrotation Xrotation Yrotation
                JOINT lRing2
                {
                  OFFSET 2.60934 -0.819778 -0.0198488
                  CHANNELS 3 Zrotation Xrotation Yrotation
                  End Site
                  {
                    OFFSET 2.33842 -0.294052 0.168128
                  }
                }
              }
              JOINT lPinky1
              {
                OFFSET 8.27202 -0.0477905 -0.4584
                CHANNELS 3 Zrotation Xrotation Yrotation
                JOINT lPinky2
                {
                  OFFSET 1.82734 -0.647385 -0.700984
                  CHANNELS 3 Zrotation Xrotation Yrotation
                  End Site
                  {
                    OFFSET 1.69225 -0.51767 -0.607171
                  }
                }
              }
            }
          }
        }
      }
    }
  }
  JOINT rButtock
  {
    OFFSET -8.77824 4.35084 1.2192
    CHANNELS 3 Zrotation Xrotation Yrotation
    JOINT rThigh
    {
      OFFSET 0 -1.70687 -2.19456
      CHANNELS 3 Zrotation Xrotation Yrotation
      JOINT rShin
      {
        OFFSET 0 -36.8199 0.73152
        CHANNELS 3 Zrotation Xrotation Yrotation
        JOINT rFoot
        {
          OFFSET 0.73152 -45.1104 -5.12064
          CHANNELS 3 Zrotation Xrotation Yrotation
          End Site
          {
            OFFSET -1.1221 -3.69964 12.103
          }
        }
      }
    }
  }
  JOINT lButtock
  {
    OFFSET 8.77824 4.35084 1.2192
    CHANNELS 3 Zrotation Xrotation Yrotation
    JOINT lThigh
    {
      OFFSET 0 -1.70687 -2.19456
      CHANNELS 3 Zrotation Xrotation Yrotation
      JOINT lShin
      {
        OFFSET 0 -36.8199 0.73152
        CHANNELS 3 Zrotation Xrotation Yrotation
        JOINT lFoot
        {
          OFFSET -0.73152 -45.1104 -5.12064
          CHANNELS 3 Zrotation Xrotation Yrotation
          End Site
          {
            OFFSET 1.1221 -3.69964 12.103
          }
        }
      }
    }
  }
}
MOTION
Frames:	4
Frame Time:	0.00833333
53.5525 86.1863 -7.778 1.8403 -0.2869 5.078 -6.98934 -0.998098 1.86619 -0.0872701 1.71302 0.550586 -1.79326 8.62878 -0.6361 2.83515 18.5492 -1.38209 -0.0 0.0 0.0 -0.0 0.0 0.0 -4.99317e-14 -4.05455e-14 -8.24956e-15 53.2573 13.0858 63.8117 -21.8719 -15.5662 43.4447 -0.116789 -9.69924 -1.37644 4.90643e-10 5.65677e-09 7.1927e-10 8.38182e-10 9.7325e-09 1.24939e-09 4.9065e-10 5.65679e-09 7.19267e-10 7.73091 5.47488 0.417314 4.90646e-10 5.65679e-09 7.19273e-10 2.90554 0.965183 0.102902 4.90655e-10 5.65679e-09 7.19269e-10 10.2786 0.731801 0.0259123 4.9064e-10 5.65677e-09 7.19276e-10 2.22167 -0.733487 -0.20892 -4.98614e-14 -4.05583e-14 -8.44835e-15 -44.6725 11.6806 -63.155 20.7239 -13.9504 -40.4676 0.0411857 -5.78248 0.815472 3.9429e-10 7.99125e-10 -5.38859e-10 6.87803e-10 1.34769e-09 -9.3167e-10 3.94288e-10 7.99126e-10 -5.38846e-10 -7.73091 5.47488 -0.417314 3.94285e-10 7.9911e-10 -5.38853e-10 -2.90554 0.965183 -0.102902 3.94283e-10 7.99108e-10 -5.3886e-10 -10.2786 0.731801 -0.0259123 3.94292e-10 7.99129e-10 -5.38869e-10 -2.22167 -0.733487 0.20892 -2.03217e-16 0.0 -3.88251e-19 -6.29685 -17.3277 11.7239 -0.0896507 22.2567 0.367413 -5.02173 -7.54839 -21.0234 2.03217e-16 0.0 3.88251e-19 -2.89384 -11.683 1.57696 0.0592074 18.1467 -0.273614 0.417111 -10.7044 -0.0181722
53.9454 86.1901 -7.64592 3.0845 -0.2572 5.1311 -7.1821 -1.10445 1.8788 -0.0218893 1.75741 0.555497 -1.61322 8.80497 -0.567662 2.59703 18.325 -1.22881 -0.0 0.0 0.0 -0.0 0.0 0.0 -7.06035e-14 -6.48252e-14 -1.355e-14 53.3778 13.2091 63.8335 -21.839 -15.5175 43.3567 -0.111902 -9.50404 -1.34819 6.58953e-10 6.48168e-09 6.09463e-10 1.13016e-09 1.11641e-08 1.0595e-09 6.58959e-10 6.4817e-09 6.0946e-10 7.73091 5.47488 0.417314 6.58954e-10 6.48169e-09 6.09465e-10 2.90554 0.965183 0.102902 6.58965e-10 6.48171e-09 6.09462e-10 10.2786 0.731801 0.0259123 6.5895e-10 6.48169e-09 6.09469e-10 2.22167 -0.733487 -0.20892 -7.05689e-14 -6.48322e-14 -1.37406e-14 -44.7823 11.7032 -63.0384 20.7011 -13.92 -40.4102 0.0399715 -5.70034 0.803806 3.47716e-10 4.84295e-10 -4.33368e-10 6.06372e-10 8.04411e-10 -7.48597e-10 3.47714e-10 4.84298e-10 -4.33357e-10 -7.73091 5.47488 -0.417314 3.47711e-10 4.84285e-10 -4.33362e-10 -2.90554 0.965183 -0.102902 3.4771e-10 4.84282e-10 -4.33368e-10 -10.2786 0.731801 -0.0259123 3.47717e-10 4.84299e-10 -4.33377e-10 -2.22167 -0.733487 0.20892 -2.03217e-16 0.0 -3.88251e-19 -6.47374 -17.2449 11.5232 -0.0903688 22.3624 0.370574 -5.03791 -7.65702 -20.9171 2.03217e-16 0.0 3.88251e-19 -3.01131 -11.4699 1.62068 0.0586988 17.9998 -0.270985 0.388794 -10.7114 -0.124894
53.8568 86.2218 -7.38093 3.2918 0.0531 4.5763 -7.57187 -1.20141 1.84571 0.0768757 1.82032 0.547485 -1.35539 9.17504 -0.456478 2.27549 17.9151 -0.991694 -0.0 0.0 0.0 -0.0 0.0 0.0 -1.07697e-13 -8.51809e-14 -1.78223e-14 53.5516 13.4476 63.8442 -21.805 -15.4673 43.2661 -0.10518 -9.22199 -1.30744 8.02764e-10 6.77138e-09 3.69088e-10 1.38138e-09 1.16782e-08 6.43062e-10 8.02769e-10 6.77139e-09 3.69083e-10 7.73091 5.47488 0.417314 8.02764e-10 6.77137e-09 3.69086e-10 2.90554 0.965183 0.102902 8.02776e-10 6.7714e-09 3.69086e-10 10.2786 0.731801 0.0259123 8.02761e-10 6.77139e-09 3.69093e-10 2.22167 -0.733487 -0.20892 -1.07733e-13 -8.51785e-14 -1.80118e-14 -44.924 11.7448 -62.8164 20.6727 -13.8822 -40.339 0.037015 -5.49183 0.774211 2.85937e-10 -3.16748e-10 -2.27317e-10 4.9744e-10 -5.74236e-10 -3.91402e-10 2.85936e-10 -3.16747e-10 -2.27311e-10 -7.73091 5.47488 -0.417314 2.85932e-10 -3.1675e-10 -2.27311e-10 -2.90554 0.965183 -0.102902 2.85932e-10 -3.16757e-10 -2.27318e-10 -10.2786 0.731801 -0.0259123 2.85937e-10 -3.16746e-10 -2.27325e-10 -2.22167 -0.733487 0.20892 -2.03217e-16 0.0 -3.88251e-19 -6.83455 -17.0642 11.2521 -0.0911948 22.4998 0.37438 -5.05142 -7.80661 -20.7435 2.03217e-16 0.0 3.88251e-19 -3.26856 -11.1114 1.78684 0.0576176 17.8066 -0.267043 0.326908 -10.7452 -0.358312
53.634 86.2216 -7.30322 2.8396 0.0471 4.5033 -7.98334 -1.28395 1.80314 0.170986 1.88829 0.536728 -1.10295 9.52776 -0.344993 1.959 17.5099 -0.755617 -0.0 0.0 0.0 -0.0 0.0 0.0 -1.37165e-13 -1.02505e-13 -2.16815e-14 53.7105 13.6848 63.8675 -21.7685 -15.4136 43.1688 -0.099019 -8.9469 -1.2678 9.0793e-10 6.71015e-09 1.02159e-10 1.56622e-09 1.15876e-08 1.80432e-10 9.07933e-10 6.71016e-09 1.02153e-10 7.73091 5.47488 0.417314 9.07927e-10 6.71012e-09 1.02154e-10 2.90554 0.965183 0.102902 9.0794e-10 6.71016e-09 1.02157e-10 10.2786 0.731801 0.0259123 9.07926e-10 6.71016e-09 1.02163e-10 2.22167 -0.733487 -0.20892 -1.37271e-13 -1.02493e-13 -2.18745e-14 -45.0507 11.7917 -62.5886 20.6475 -13.8486 -40.2758 0.0341247 -5.27148 0.742969 2.03768e-10 -1.12657e-09 -2.02534e-12 3.53037e-10 -1.96649e-09 -9.99006e-13 2.03767e-10 -1.12657e-09 -2.02292e-12 -7.73091 5.47488 -0.417314 2.03763e-10 -1.12656e-09 -2.0204e-12 -2.90554 0.965183 -0.102902 2.03764e-10 -1.12657e-09 -2.02557e-12 -10.2786 0.731801 -0.0259123 2.03767e-10 -1.12657e-09 -2.03229e-12 -2.22167 -0.733487 0.20892 -2.03217e-16 0.0 -3.88251e-19 -7.23577 -16.8726 10.9342 -0.0920709 22.6398 0.377856 -5.05079 -7.94533 -20.5337 2.03217e-16 0.0 3.88251e-19 -3.55128 -10.7437 1.97873 0.0564609 17.6197 -0.263023 0.255274 -10.7831 -0.628303
